<svg xmlns="http://www.w3.org/2000/svg" width="117" height="32" fill="none" viewBox="0 0 117 32"><g clip-path="url(#a)"><path fill="#fff" d="M97.756 27.144c-1.183 0-2.372-.694-3.264-1.905-.79-1.073-1.226-2.372-1.226-3.656 0-1.372.36-2.85 1.07-4.394.66-1.44 1.597-2.873 2.782-4.258 1.046-1.221 2.182-2.272 3.285-3.04 1.325-.92 2.538-1.39 3.605-1.39 1.371 0 2.495.904 3.044 1.442.121.119.26.265.405.435q.355-.386.771-.702l.01-.008a5.9 5.9 0 0 1 4.408-1.145c1.44.201 2.608.847 3.374 1.87.684.917.985 2.07.84 3.21a2.23 2.23 0 0 1-.724 1.395 2.175 2.175 0 0 1-2.835.063l-.008-.007c-.491-.406-.822-.586-1.01-.663q-.11.272-.145.563c-.119.875.083 1.895.296 2.975v.006c.386 1.954.867 4.386-.665 6.621-1.003 1.465-2.693 2.309-4.636 2.309a6.4 6.4 0 0 1-2.324-.433c-1.057-.419-1.91-1.093-2.469-1.952l-.026-.041q-.422.397-.809.735c-1.586 1.381-2.708 1.97-3.749 1.97"/><path fill="#fff" d="M107.093 20.162c.071.419-.233.599-.37.658a.7.7 0 0 1-.282.059q-.272 0-.543-.232.555-.62 1.063-1.198.068.348.132.713"/><path fill="#fff" d="M114.378 11.66c-.428-.572-1.124-.94-2.015-1.063a3.87 3.87 0 0 0-3.901 1.897.1.1 0 0 0-.037.042c-1.06 1.788-3.386 4.536-5.924 6.997-1.598 1.549-3.02 2.738-4.077 3.426a.897.897 0 0 1-1.262-.291.93.93 0 0 1-.134-.462 9.5 9.5 0 0 1 .54-3.374c.172.232.401.401.693.401.788 0 2.798-.998 4.677-2.32.991-.7 1.834-1.41 2.436-2.059.716-.774 1.079-1.444 1.079-1.99 0-.361-.326-.918-.836-1.416-.784-.769-1.385-.852-1.607-.852-1.291 0-3.432 1.491-5.33 3.707-2.128 2.488-3.348 5.142-3.348 7.281 0 1.786 1.368 3.468 2.426 3.468 1.04 0 3.537-2.375 5.524-4.596 2.412-2.694 4.436-4.92 5.224-6.394-.01.706-.289 1.62-.02 2.739.207.871.444 1.86.64 3.003.248 1.445-.619 2.518-1.586 2.94-1.001.438-2.477.355-3.603-1.185a.13.13 0 0 0-.179-.03.14.14 0 0 0-.057.097c-.169 1.26.525 2.328 1.858 2.855a4.4 4.4 0 0 0 1.577.293c1.115 0 2.262-.418 2.941-1.41 1.029-1.503.692-3.21.335-5.015-.238-1.205-.485-2.45-.318-3.677.158-1.167.68-2.032 1.396-2.317.808-.322 1.854.042 3.109 1.08a.13.13 0 0 0 .197-.036.14.14 0 0 0 .016-.053 2.3 2.3 0 0 0-.434-1.687m-15.67 4.86c1.413-2.177 3.317-3.494 4.516-3.964.404-.159.758-.238 1.038-.238a.9.9 0 0 1 .421.084c-.103.518-.573 1.226-1.332 1.986a12.9 12.9 0 0 1-2.917 2.175c-.86.46-1.614.705-2.179.716q.222-.41.453-.759"/><path fill="#fff" d="M8.254 32c-2.835 0-5.236-1.08-6.944-3.121-.933-1.118-1.85-3.05-.927-5.922.856-2.658 3.196-5.648 6.592-8.42a33 33 0 0 1 3.402-2.442h-.025a3.27 3.27 0 0 1-2.16-.845c-.697-.64-1.02-1.527-.883-2.431.124-.8.438-1.588.942-2.345a9.2 9.2 0 0 1 1.615-1.807c1.12-.982 2.614-1.91 4.318-2.682C16.967.725 19.97 0 22.424 0q.775-.003 1.54.11c1.373.214 2.456.73 3.22 1.532.942.983 1.335 2.348 1.109 3.844-.124.809-.531 1.596-1.26 2.404q.24.227.45.479a6.5 6.5 0 0 1 1.204 2.167q.428-.348.855-.645c1.325-.92 2.539-1.39 3.606-1.39.588 0 1.766.188 3.043 1.442q.427.418.768.912.631-.489 1.262-.886c1.546-.974 2.986-1.467 4.278-1.467a4.35 4.35 0 0 1 2.564.853q.437.319.791.728a2.94 2.94 0 0 1 1.264-.285c1.07 0 2.015.577 2.577 1.453.55-.049 1.131-.09 1.688-.09.791 0 1.446.084 2.005.26.95.297 1.52.825 1.858 1.307.996-1.135 2.064-2.112 3.108-2.837 1.326-.92 2.54-1.39 3.607-1.39.587 0 1.763.188 3.041 1.44.342.333.644.706.898 1.111.433-.324.865-.622 1.285-.886q.825-.527 1.72-.918a5 5 0 0 1-.426-.552c-1.28-1.936-.638-3.933-.403-4.515a2.2 2.2 0 0 1 .56-.811 2.17 2.17 0 0 1 2.731-.178c.454.32.772.805.887 1.354q.134.15.299.267c.371.266 1.253.715 2.951.715 1.535 0 5.049-.724 8.48-1.435q.415-.429.807-.825c1.197-1.212 2.075-2.031 2.68-2.502C87.98.368 88.559 0 89.323 0c1.777 0 2.572 2.002 2.714 2.403l.045.138c2.094-.33 3.672-.483 4.926-.483 1.505 0 2.654.35 3.514 1.07 1.042.874 1.572 2.198 1.575 3.936.001.352-.081.7-.238 1.015a2.2 2.2 0 0 1-.666.796c.554.228.915.596 1.107.792l.058.058 1.747 1.74-1.986 1.452c-1.294.946-2.9 2.43-4.772 4.412-3.459 3.656-6.673 7.787-7.453 8.877l-.018.024-.017.024a2.2 2.2 0 0 1-1.207.804c-.32.082-.649.124-.979.125-.76 0-1.504-.22-2.147-.631l-.057-.037-.16-.118-.166-.119-.06-.05a4 4 0 0 1-.371-.358c-1.042.84-1.927 1.217-2.812 1.217-1.09 0-2.155-.586-3.023-1.661-1.016.93-2.173 1.661-3.296 1.661-1.457 0-2.579-1.005-3.157-1.666-1.15 1.153-2.112 1.667-3.108 1.667-1.101 0-2.33-.573-3.255-1.473q-.478.387-.991.721c-1.348.88-2.116.979-2.577.979-.65 0-1.912-.225-3.06-1.73l-.059-.078c-1.305 1.047-2.597 1.637-3.668 1.637-1.183 0-2.373-.694-3.265-1.904a6.4 6.4 0 0 1-.696-1.199 24 24 0 0 1-1.616 1.55c-1.25 1.074-2.23 1.553-3.18 1.553q-.09 0-.16-.003c-2.4-.052-3.336-1.317-3.681-2.068-.349-.76-.379-1.554-.245-2.303-1.301 1.178-2.518 2.123-3.624 2.81-1.627 1.014-3.05 1.508-4.347 1.508-1.122 0-2.292-.455-3.21-1.249a5 5 0 0 1-.765-.823c-.468.381-.932.73-1.362 1.025-1.134.773-1.93 1.103-2.659 1.103-1.183 0-2.373-.695-3.265-1.905a6 6 0 0 1-.4-.616l-.29.274c-3.337 3.125-7.29 5.502-10.843 6.52-1.336.384-2.63.58-3.84.583z"/><path fill="#fff" d="M97.824 7.797c.172.505.516.932.971 1.202-.99.453-2.222 1.434-4.154 3.262a3 3 0 0 0-.33-.997l-.003-.005c-.524-.96-1.484-1.51-2.636-1.51-1.415 0-2.368.703-2.833 1.553-.489-.605-1.17-.963-1.906-.963q-.236 0-.468.042.479-.462.908-.869l.09-.018.664-.138.086-.018c3.713-.767 7.552-1.56 9.377-1.56q.117-.002.234.02M15.2 8.334q.21-.142.427-.28l-.39.85-.231.467c-.864.475-1.672.942-2.358 1.348q.1-.2.16-.415c.214-.27.92-.985 2.391-1.97m27.524 6.112q.173.226.397.4a52 52 0 0 1-2.667 2.486c-1.428 1.235-2.774 2.249-3.926 2.966q.45-.839 1.033-1.591c1.304-1.714 3.147-3.341 4.41-4.206a1.5 1.5 0 0 1 .498-.068q.127 0 .255.013m-19.696-2.389c.343.192.583 1.096.345 2.68-.181 1.198-1.395 3.376-4.262 5.898-2.587 2.276-5.627 4.058-8.34 4.889-1.042.319-1.977.48-2.779.48-1.044 0-1.831-.272-2.34-.81-.025-.043-.059-.144.014-.435.476-1.884 3.324-4.348 4.185-5.058a30 30 0 0 1 1.55-1.191c-.074.329-.137.663-.19 1.012-.161 1.078.31 2.185 1.263 2.96l.01.01c.359.287 1.093.77 1.99.77.304 0 .605-.057.889-.168.388-.15.73-.402.99-.731s.43-.721.49-1.138v-.007c.33-2.181 1.52-4.795 3.03-8.104l.114-.252a5.8 5.8 0 0 1 1.672-.795q.4-.115.815-.123c.234.004.426.043.554.113"/><path fill="#fff" d="M100.909 11.22c-.665-.662-.9-1.298-5.907 3.578v.002l-.444.462c-2.216 2.328-5.079 5.68-6.778 7.706l-.003.006a.05.05 0 0 1-.092-.021.05.05 0 0 1 .01-.039c2.654-4.328 5.532-9.306 4.807-10.64q-.235-.43-.829-.43c-.957 0-1.084.611-1.09.637a.13.13 0 0 0 .036.119c.27.273.113 1.046-.466 2.293-.18.394-.396.816-.632 1.256q-.63.997-1.367 1.915c-.685.837-5.486 5.442-6.478 4.982l.105.06a.9.9 0 0 1-.409-.39.92.92 0 0 1-.102-.56c.116-.888.352-1.623.816-2.404.77-1.3 2.142-2.722 4.927-5.412.625-.519.499-1.126.416-1.363-.093-.265-.299-.545-.496-.545-.289 0-.867.377-1.708 1.128-.79.702-1.7 1.629-2.557 2.612q-.053.064-.107.122s0 .004-.003.004c-.911 1.053-1.687 2.08-2.25 2.978q-.075.118-.143.233c-1.037 1.529-4.474 4.354-5.149 3.67a.9.9 0 0 1-.2-.833c.474-1.909 2.1-4.534 4.817-7.746 2.111-2.496 4.576-4.982 6.764-7.02l1.321-.273c4.025-.832 7.827-1.62 9.875-1.62 1.772 0 2.178 1.207 2.178 1.39a.13.13 0 0 0 .085.124.1.1 0 0 0 .052.009.14.14 0 0 0 .09-.046.14.14 0 0 0 .034-.095c0-1.1-.272-1.861-.826-2.326-.481-.403-1.18-.59-2.198-.59-2.001 0-4.917.466-7.957 1.05q.403-.345.767-.647c.39-.323.489-.837.273-1.448-.161-.46-.54-1.015-.77-1.015-.112 0-.45 0-3.075 2.658-.391.394-.803.819-1.228 1.266l-.454.091c-3.752.778-7.295 1.513-9.063 1.513-2.156 0-3.445-.6-4.145-1.1-.815-.587-1.12-1.234-1.12-1.504a.13.13 0 0 0-.105-.13.13.13 0 0 0-.113.03.13.13 0 0 0-.034.05c-.134.327-.508 1.482.206 2.56.765 1.156 2.46 1.741 5.038 1.741 1.972 0 4.72-.427 7.688-.994-.74.812-1.486 1.651-2.212 2.485-1.219 1.396-3.275 3.816-4.966 6.098 0 0-5.318 6.84-6.597 6.264a.91.91 0 0 1-.376-.929c.228-1.176.675-2.247 1.384-3.364 1.1-1.735 2.864-3.626 5.895-6.321.627-.52.5-1.127.417-1.365-.092-.265-.296-.544-.495-.544-.293 0-.955.475-1.964 1.415q-.417.386-.863.833a4 4 0 0 0-.442-.956c-.444-.69-1.02-1.071-1.621-1.071-1.359 0-4.017 1.67-6.322 3.972-1.043 1.04-1.947 2.144-2.643 3.228q-.002.005-.007.009l-.026.042q-.06.09-.114.178l-.088.137c-1.825 2.466-5.793 5.433-6.268 5.237a.9.9 0 0 1-.411-.305.93.93 0 0 1-.185-.482 9.6 9.6 0 0 1 .504-4.007c.172.232.402.402.695.402.786 0 2.798-.998 4.677-2.322.99-.698 1.834-1.41 2.436-2.057.718-.774 1.082-1.444 1.082-1.99 0-.362-.33-.918-.837-1.417-.784-.769-1.385-.852-1.607-.852-1.293 0-3.434 1.491-5.33 3.708q-.733.855-1.359 1.793c-.586.764-2.362 2.544-4.377 4.26-1.49 1.27-2.74 2.186-3.633 2.675a.29.29 0 0 1-.348-.05.3.3 0 0 1-.053-.353c.774-1.504 2.615-3.45 4.167-5.087 1.772-1.873 2.767-2.956 2.616-3.458l-.01-.02c-.536-1.039-2.556-.843-4.339-.67-.417.042-.826.081-1.179.1a1.4 1.4 0 0 0 .052-.378c0-.675-.471-1.22-1.052-1.22-.58 0-1.05.544-1.05 1.22 0 .442.201.829.505 1.043-.653.828-2.454 2.753-4.78 4.77-1.686 1.458-4.573 3.748-6.82 4.437a.89.89 0 0 1-.798-.143.91.91 0 0 1-.364-.734 5.7 5.7 0 0 1 .275-1.697c.327-1.059.945-2.19 1.838-3.364 1.556-2.043 3.626-3.802 4.926-4.686.811-.544 2.367-.495 3.115-.089.161.09.356.234.356.424a.14.14 0 0 0 .057.111.13.13 0 0 0 .165-.016c.263-.264.308-.675.124-1.121-.289-.706-1.145-1.454-2.17-1.454-.887 0-1.99.398-3.189 1.152-1.138.717-2.305 1.713-3.375 2.881-1.35 1.47-2.388 3.035-3.036 4.522-.67 1.298-3.903 3.522-5.506 4.163-.429.136-.673.176-.82.092l-.063-.05-.018-.015a.93.93 0 0 1-.302-.622 9.6 9.6 0 0 1 .515-3.887c.172.232.401.402.694.402.787 0 2.799-.998 4.677-2.321.991-.699 1.835-1.41 2.437-2.058.715-.773 1.08-1.443 1.08-1.988 0-.362-.33-.919-.835-1.417-.785-.77-1.386-.852-1.607-.852-1.292 0-3.435 1.49-5.331 3.707q-.526.613-.973 1.234.038-.168.062-.33c.366-2.423.032-4.267-.99-5.475-.628-.742-1.505-1.22-2.617-1.435a21 21 0 0 0 .789-.558c1.33-.998 2.058-1.862 2.165-2.568.128-.858-.057-1.554-.552-2.072-.447-.468-1.137-.776-2.05-.918-2.191-.339-5.574.335-8.626 1.716-1.522.69-2.84 1.504-3.811 2.355-.522.458-.945.928-1.254 1.394-.33.499-.536 1-.612 1.489-.066.436.392.783.852.855.348.054.597-.076.634-.328.172-1.134 4.356-4.28 8.39-5.732 0 0 0-.002.004-.002.38-.146.768-.265 1.097-.353q.198-.056.359-.095l.12-.029c.226-.054.366-.081.366-.081 1.462-.297 3.085-.306 3.96.742.023.029.094.112-.007.331-.36.789-2.429 2.31-5.355 3.958l.165-.352c.337-.718.598-1.278.8-1.716l.015-.035c.192-.42-1.328-1.485-1.524-1.065h-.002c-.18.39-.388.837-.612 1.312-.437.933-.962 2.052-1.517 3.266l-.536 1.09a84 84 0 0 0-4.386 2.544 31 31 0 0 0-3.902 2.721c-3.046 2.487-5.203 5.198-5.924 7.438-.504 1.57-.323 2.889.537 3.92 1.321 1.579 3.145 2.381 5.37 2.381 1.013 0 2.112-.167 3.283-.502 3.248-.93 6.896-3.133 10.005-6.044 1.244-1.163 2.315-2.366 3.17-3.538a7 7 0 0 0-.242 1.763c0 1.786 1.365 3.468 2.425 3.468.549 0 2.211-1.133 3.78-2.577.661-.607 1.21-.963 1.66-1.483a6.7 6.7 0 0 0-.2 1.556c0 1.267 1.445 2.447 2.758 2.447 3.856 0 10.294-7.407 12.346-9.896.46-.01 1.086-.05 1.862-.103.732-.049 1.7-.115 2.357-.117-1.464 1.409-4.013 4.043-5.36 5.854l-.027.032c-1.022 1.275-2.46 4.226.781 4.284l.097.003c.82 0 2.468-1.418 4.9-4.21.875-1.005 1.697-1.596 2.34-2.417-.591 1.266-.909 2.07-.909 3.159 0 1.786 1.367 3.468 2.428 3.468.743 0 2.301-.809 3.977-2.733a38 38 0 0 0 1.66-2.052c-.388.963-.585 1.877-.585 2.732 0 .38-.077.805.305 1.303.609.8 1.156.921 1.43.921.628 0 2.226-1.05 3.125-2.024.405-.44.797-.888 1.156-1.31a2.2 2.2 0 0 0-.101.597c0 1.244 1.582 2.512 2.642 2.512.862 0 2.408-1.702 3.992-3.94-.16.384-.248.712-.248.97 0 1.243 1.457 2.972 2.519 2.972.717 0 2.265-1.141 3.952-3.473q.075-.104.148-.209a2.4 2.4 0 0 0-.093.625c0 1.244 1.25 3.056 2.313 3.056.918 0 2.57-1.469 4.908-4.364q.292-.362.573-.72c-.346.601-.646 1.127-.646 1.13-.565 1.04-.945 1.873-.945 2.341 0 .457.228.906.622 1.24l.106.078.11.08a1.93 1.93 0 0 0 1.522.25.13.13 0 0 0 .071-.049c.8-1.118 4.094-5.355 7.634-9.098 1.964-2.082 3.668-3.65 5.056-4.666m-44.254 5.3c1.415-2.177 3.317-3.494 4.517-3.964.405-.159.759-.238 1.039-.238a.94.94 0 0 1 .421.084c-.105.518-.573 1.226-1.334 1.986a12.9 12.9 0 0 1-2.917 2.175c-.86.46-1.61.706-2.177.716.147-.273.3-.526.45-.759m-28.813 0c1.415-2.177 3.317-3.494 4.517-3.964.405-.159.757-.238 1.037-.238a.94.94 0 0 1 .423.084c-.105.518-.573 1.226-1.332 1.986-.867.86-1.85 1.593-2.92 2.175-.858.46-1.61.706-2.178.716q.226-.41.453-.759m-2.431-1.465c-.31 2.058-2.115 4.669-4.95 7.162-2.8 2.463-6.115 4.399-9.096 5.312-4.157 1.275-6.254.178-7.28-.964-.512-.616-.654-1.397-.422-2.322.441-1.743 2.176-3.93 4.882-6.164 2.074-1.708 4.53-3.265 6.805-4.326-1.242 2.922-1.83 4.272-2.103 6.087-.05.332.144.712.515 1.014.197.159.478.317.707.317q.075 0 .146-.025a.29.29 0 0 0 .183-.24c.399-2.65 1.805-5.61 3.536-9.414.864-.677 1.837-1.183 2.785-1.443 1.137-.31 2.14-.248 2.902.177.893.499 1.855 1.741 1.39 4.83zm39.474 2.087c1-1.291 2.16-2.45 3.266-3.266 1.179-.871 2.259-1.33 3.122-1.33.51 0 .78.758.871 1.325q-.627.67-1.25 1.382c-1.18 1.349-2.188 2.64-2.913 3.732l-.112.168c-1.486 2.054-4.414 4.507-5.158 4.27a.9.9 0 0 1-.476-.435.93.93 0 0 1-.074-.645c.377-1.561 1.323-3.396 2.723-5.2z"/><path fill="#fff" d="M89.144 14.153c1.74 0 3.152-1.431 3.152-3.196s-1.411-3.196-3.152-3.196c-1.74 0-3.152 1.431-3.152 3.196s1.411 3.196 3.152 3.196"/><path fill="#fff" d="M89.146 12.06c.6 0 1.087-.494 1.087-1.103s-.487-1.102-1.087-1.102-1.087.493-1.087 1.102.486 1.102 1.087 1.102"/><path fill="#000" d="M114.378 11.66c-.428-.572-1.124-.94-2.015-1.063a3.87 3.87 0 0 0-3.901 1.897.1.1 0 0 0-.037.042c-1.06 1.788-3.386 4.536-5.924 6.997-1.598 1.549-3.02 2.738-4.077 3.426a.897.897 0 0 1-1.262-.291.93.93 0 0 1-.134-.462 9.5 9.5 0 0 1 .54-3.374c.172.232.401.401.693.401.788 0 2.798-.998 4.677-2.32.991-.7 1.834-1.41 2.436-2.059.716-.774 1.079-1.444 1.079-1.99 0-.361-.326-.918-.836-1.416-.784-.769-1.385-.852-1.607-.852-1.291 0-3.432 1.491-5.33 3.707-2.128 2.488-3.348 5.142-3.348 7.281 0 1.786 1.368 3.468 2.426 3.468 1.04 0 3.537-2.375 5.524-4.596 2.412-2.694 4.436-4.92 5.224-6.394-.01.706-.289 1.62-.02 2.739.207.871.444 1.86.64 3.003.248 1.445-.619 2.518-1.586 2.94-1.001.438-2.477.355-3.603-1.185a.13.13 0 0 0-.179-.03.14.14 0 0 0-.057.097c-.169 1.26.525 2.328 1.858 2.855a4.4 4.4 0 0 0 1.577.293c1.115 0 2.262-.418 2.941-1.41 1.029-1.503.692-3.21.335-5.015-.238-1.205-.485-2.45-.318-3.677.158-1.167.68-2.032 1.396-2.317.808-.322 1.854.042 3.109 1.08a.13.13 0 0 0 .197-.036.14.14 0 0 0 .016-.053 2.3 2.3 0 0 0-.434-1.687m-15.67 4.86c1.413-2.177 3.317-3.494 4.516-3.964.404-.159.758-.238 1.038-.238a.9.9 0 0 1 .421.084c-.103.518-.573 1.226-1.332 1.986a12.9 12.9 0 0 1-2.917 2.175c-.86.46-1.614.705-2.179.716q.222-.41.453-.759m2.201-5.299c-.665-.662-.9-1.298-5.907 3.578v.002l-.444.462c-2.216 2.328-5.079 5.68-6.778 7.706l-.003.006a.05.05 0 0 1-.092-.021.05.05 0 0 1 .01-.039c2.654-4.328 5.532-9.306 4.807-10.64q-.235-.43-.829-.43c-.957 0-1.084.611-1.09.637a.13.13 0 0 0 .036.119c.27.273.113 1.046-.466 2.293-.18.394-.396.816-.632 1.256q-.63.997-1.367 1.915c-.685.837-5.486 5.442-6.478 4.982l.105.06a.9.9 0 0 1-.409-.39.92.92 0 0 1-.102-.56c.116-.888.352-1.623.816-2.404.77-1.3 2.142-2.722 4.927-5.412.625-.519.499-1.126.416-1.363-.093-.265-.299-.545-.496-.545-.289 0-.867.377-1.708 1.128-.79.702-1.7 1.629-2.557 2.612q-.053.064-.107.122s0 .004-.003.004c-.911 1.053-1.687 2.08-2.25 2.978q-.075.118-.143.233c-1.037 1.529-4.474 4.354-5.149 3.67a.9.9 0 0 1-.2-.833c.474-1.909 2.1-4.534 4.817-7.746 2.111-2.496 4.576-4.982 6.764-7.02l1.321-.273c4.025-.832 7.827-1.62 9.875-1.62 1.772 0 2.178 1.207 2.178 1.39a.13.13 0 0 0 .085.124.1.1 0 0 0 .052.009.14.14 0 0 0 .09-.046.14.14 0 0 0 .034-.095c0-1.1-.272-1.861-.826-2.326-.481-.403-1.18-.59-2.198-.59-2.001 0-4.917.466-7.957 1.05q.403-.345.767-.647c.39-.323.489-.837.273-1.448-.161-.46-.54-1.015-.77-1.015-.112 0-.45 0-3.075 2.658-.391.394-.803.819-1.228 1.266l-.454.091c-3.752.778-7.295 1.513-9.063 1.513-2.156 0-3.445-.6-4.145-1.1-.815-.587-1.12-1.234-1.12-1.504a.13.13 0 0 0-.105-.13.13.13 0 0 0-.113.03.13.13 0 0 0-.034.05c-.134.327-.508 1.482.206 2.56.765 1.156 2.46 1.741 5.038 1.741 1.972 0 4.72-.427 7.688-.994-.74.812-1.486 1.651-2.212 2.485-1.219 1.396-3.275 3.816-4.966 6.098 0 0-5.318 6.84-6.597 6.264a.91.91 0 0 1-.376-.929c.228-1.176.675-2.247 1.384-3.364 1.1-1.735 2.864-3.626 5.895-6.321.627-.52.5-1.127.417-1.365-.092-.265-.296-.544-.495-.544-.293 0-.955.475-1.964 1.415q-.417.386-.863.833a4 4 0 0 0-.442-.956c-.444-.69-1.02-1.071-1.621-1.071-1.359 0-4.017 1.67-6.322 3.972-1.043 1.04-1.947 2.144-2.643 3.228q-.002.005-.007.009l-.026.042q-.06.09-.114.178l-.088.137c-1.825 2.466-5.793 5.433-6.268 5.237a.9.9 0 0 1-.411-.305.93.93 0 0 1-.185-.482 9.6 9.6 0 0 1 .504-4.007c.172.232.402.402.695.402.786 0 2.798-.998 4.677-2.322.99-.698 1.834-1.41 2.436-2.057.718-.774 1.082-1.444 1.082-1.99 0-.362-.33-.918-.837-1.417-.784-.769-1.385-.852-1.607-.852-1.293 0-3.434 1.491-5.33 3.708q-.733.855-1.359 1.793c-.586.764-2.362 2.544-4.377 4.26-1.49 1.27-2.74 2.186-3.633 2.675a.29.29 0 0 1-.348-.05.3.3 0 0 1-.053-.353c.774-1.504 2.615-3.45 4.167-5.087 1.772-1.873 2.767-2.956 2.616-3.458l-.01-.02c-.536-1.039-2.556-.843-4.339-.67-.417.042-.826.081-1.179.1a1.4 1.4 0 0 0 .052-.378c0-.675-.471-1.22-1.052-1.22-.58 0-1.05.544-1.05 1.22 0 .442.201.829.505 1.043-.653.828-2.454 2.753-4.78 4.77-1.686 1.458-4.573 3.748-6.82 4.437a.89.89 0 0 1-.798-.143.91.91 0 0 1-.364-.734 5.7 5.7 0 0 1 .275-1.697c.327-1.059.945-2.19 1.838-3.364 1.556-2.043 3.626-3.802 4.926-4.686.811-.544 2.367-.495 3.115-.089.161.09.356.234.356.424a.14.14 0 0 0 .057.111.13.13 0 0 0 .165-.016c.263-.264.308-.675.124-1.121-.289-.706-1.145-1.454-2.17-1.454-.887 0-1.99.398-3.189 1.152-1.138.717-2.305 1.713-3.375 2.881-1.35 1.47-2.388 3.035-3.036 4.522-.67 1.298-3.903 3.522-5.506 4.163-.429.136-.673.176-.82.092l-.063-.05-.018-.015a.93.93 0 0 1-.302-.622 9.6 9.6 0 0 1 .515-3.887c.172.232.401.402.694.402.787 0 2.799-.998 4.677-2.321.991-.699 1.835-1.41 2.437-2.058.715-.773 1.08-1.443 1.08-1.988 0-.362-.33-.919-.835-1.417-.785-.77-1.386-.852-1.607-.852-1.292 0-3.435 1.49-5.331 3.707q-.526.613-.973 1.234.038-.168.062-.33c.366-2.423.032-4.267-.99-5.475-.628-.742-1.505-1.22-2.617-1.435a21 21 0 0 0 .789-.558c1.33-.998 2.058-1.862 2.165-2.568.128-.858-.057-1.554-.552-2.072-.447-.468-1.137-.776-2.05-.918-2.191-.339-5.574.335-8.626 1.716-1.522.69-2.84 1.504-3.811 2.355-.522.458-.945.928-1.254 1.394-.33.499-.536 1-.612 1.489-.066.436.392.783.852.855.348.054.597-.076.634-.328.172-1.134 4.356-4.28 8.39-5.732 0 0 0-.002.004-.002.38-.146.768-.265 1.097-.353q.198-.056.359-.095l.12-.029c.226-.054.366-.081.366-.081 1.462-.297 3.085-.306 3.96.742.023.029.094.112-.007.331-.36.789-2.429 2.31-5.355 3.958l.165-.352c.337-.718.598-1.278.8-1.716l.015-.035c.192-.42-1.328-1.485-1.524-1.065h-.002c-.18.39-.388.837-.612 1.312-.437.933-.962 2.052-1.517 3.266l-.536 1.09a84 84 0 0 0-4.386 2.544 31 31 0 0 0-3.902 2.721c-3.046 2.487-5.203 5.198-5.924 7.438-.504 1.57-.323 2.889.537 3.92 1.321 1.579 3.145 2.381 5.37 2.381 1.013 0 2.112-.167 3.283-.502 3.248-.93 6.896-3.133 10.005-6.044 1.244-1.163 2.315-2.366 3.17-3.538a7 7 0 0 0-.242 1.763c0 1.786 1.365 3.468 2.425 3.468.549 0 2.211-1.133 3.78-2.577.661-.607 1.21-.963 1.66-1.483a6.7 6.7 0 0 0-.2 1.556c0 1.267 1.445 2.447 2.758 2.447 3.856 0 10.294-7.407 12.346-9.896.46-.01 1.086-.05 1.862-.103.732-.049 1.7-.115 2.357-.117-1.464 1.409-4.013 4.043-5.36 5.854l-.027.032c-1.022 1.275-2.46 4.226.781 4.284l.097.003c.82 0 2.468-1.418 4.9-4.21.875-1.005 1.697-1.596 2.34-2.417-.591 1.266-.909 2.07-.909 3.159 0 1.786 1.367 3.468 2.428 3.468.743 0 2.301-.809 3.977-2.733a38 38 0 0 0 1.66-2.052c-.388.963-.585 1.877-.585 2.732 0 .38-.077.805.305 1.303.609.8 1.156.921 1.43.921.628 0 2.226-1.05 3.125-2.024.405-.44.797-.888 1.156-1.31a2.2 2.2 0 0 0-.101.597c0 1.244 1.582 2.512 2.642 2.512.862 0 2.408-1.702 3.992-3.94-.16.384-.248.712-.248.97 0 1.243 1.457 2.972 2.519 2.972.717 0 2.265-1.141 3.952-3.473q.075-.104.148-.209a2.4 2.4 0 0 0-.093.625c0 1.244 1.25 3.056 2.313 3.056.918 0 2.57-1.469 4.908-4.364q.292-.362.573-.72c-.346.601-.646 1.127-.646 1.13-.565 1.04-.945 1.873-.945 2.341 0 .457.228.906.622 1.24l.106.078.11.08a1.93 1.93 0 0 0 1.522.25.13.13 0 0 0 .071-.049c.8-1.118 4.094-5.355 7.634-9.098 1.964-2.082 3.668-3.65 5.056-4.666m-44.254 5.3c1.415-2.177 3.317-3.494 4.517-3.964.405-.159.759-.238 1.039-.238a.94.94 0 0 1 .421.084c-.105.518-.573 1.226-1.334 1.986a12.9 12.9 0 0 1-2.917 2.175c-.86.46-1.61.706-2.177.716.147-.273.3-.526.45-.759m-28.813 0c1.415-2.177 3.317-3.494 4.517-3.964.405-.159.757-.238 1.037-.238a.94.94 0 0 1 .423.084c-.105.518-.573 1.226-1.332 1.986-.867.86-1.85 1.593-2.92 2.175-.858.46-1.61.706-2.178.716q.226-.41.453-.759m-2.431-1.465c-.31 2.058-2.115 4.669-4.95 7.162-2.8 2.463-6.115 4.399-9.096 5.312-4.157 1.275-6.254.178-7.28-.964-.512-.616-.654-1.397-.422-2.322.441-1.743 2.176-3.93 4.882-6.164 2.074-1.708 4.53-3.265 6.805-4.326-1.242 2.922-1.83 4.272-2.103 6.087-.05.332.144.712.515 1.014.197.159.478.317.707.317q.075 0 .146-.025a.29.29 0 0 0 .183-.24c.399-2.65 1.805-5.61 3.536-9.414.864-.677 1.837-1.183 2.785-1.443 1.137-.31 2.14-.248 2.902.177.893.499 1.855 1.741 1.39 4.83zm39.474 2.087c1-1.291 2.16-2.45 3.266-3.266 1.179-.871 2.259-1.33 3.122-1.33.51 0 .78.758.871 1.325q-.627.67-1.25 1.382c-1.18 1.349-2.188 2.64-2.913 3.732l-.112.168c-1.486 2.054-4.414 4.507-5.158 4.27a.9.9 0 0 1-.476-.435.93.93 0 0 1-.074-.645c.377-1.561 1.323-3.396 2.723-5.2z"/><path fill="#000" d="M89.146 12.06c.6 0 1.087-.494 1.087-1.103s-.487-1.102-1.087-1.102-1.087.493-1.087 1.102.486 1.102 1.087 1.102"/></g><defs><clipPath id="a"><path fill="#fff" d="M0 0h116.898v32H0z"/></clipPath></defs></svg>